<svg width='200' height='200' fill="#FFCFED" xmlns="http://www.w3.org/2000/svg" xmlns:xlink="http://www.w3.org/1999/xlink" version="1.1" x="0px" y="0px" viewBox="0 0 128 128" enable-background="new 0 0 128 128" xml:space="preserve"><g><path d="M127.406,54.814c-1.352-2.38-3.863-2.981-6.316-3.517c-1.498-0.322-4.169-0.566-4.324-2.563   c-0.365-4.551,9.452-2.999,10.498-7.248c-1.583-2.815-5.699-3.493-9.07-4.538c-3.664-1.131-7.397-2.098-11.229-2.418   c-1.639-0.137-7.801-0.647-8.503,1.537c-0.435,1.354,1.042,1.55,1.169,2.584c0.316,2.544-4.014,2.649-5.841,2.574   c-5.495-0.218-10.868-2.95-16.425-1.803c-2.18,0.451-5.867,2.759-5.77,4.948c0.096,2.195,4.236,4.438,7.42,4.948   c6.941,1.112,16.281-2.616,16.908,3.713c0.273,2.78-3.098,3.667-2.885,6.598c3.054,3.288,8.27,1.934,12.078,1.12   c2.971-0.637,5.953-0.79,8.945-0.814c2.439-0.019,4.883,0.048,7.337,0.008C124.429,59.897,129.789,59.01,127.406,54.814z"/><path d="M84.377,62.516c0.365-2.729,4.009-1.977,5.153-3.898c4.462-7.503-26.819-8.897-30.72-8.473   c-0.998,0.11-1.701,0.792-2.474,1.239c-0.706,3.728,2.378,3.672,2.063,7.008c-2.281,3.404-7.953,0.785-13.197,0.414   c-9.079-0.64-21.2,1.891-21.441,7.008c-0.178,3.699,3.917,4.368,4.534,6.601c-6.089,1.883-15.317,2.021-17.923,8.798   c-0.508,1.316-0.025,2.834-0.5,4.081c-1.405,3.701-10.639,2.584-9.822,8.325c1.771,0.011,3.385-1.599,4.804-2.533   c2.068-1.365,4.137-2.171,6.501-2.63c1.827-0.357,5.143-0.831,5.089-3.286c3.436-0.889,6.475-0.094,9.864-0.692   c1.466-0.258,4.211-0.575,2.74-2.424c-0.661-0.832-2.182-0.475-2.402-1.806c4.186-0.614,9.483-1.275,15.668-0.824   c6.484,0.473,12.611,3.624,17.321,3.299c2.636-0.183,6.843-1.518,6.185-5.773c-2.316-2.079-8.092-0.703-10.721-2.474   c11.183-3.855,26.64,1.275,38.76-2.061C93.684,65.787,83.609,68.246,84.377,62.516z"/></g></svg>