<svg width="306" height="306" viewBox="0 0 306 306" fill="none" xmlns="http://www.w3.org/2000/svg">
<circle cx="153" cy="153" r="153" fill="white" fill-opacity="0.28"/>
<path d="M129.974 179.863H146.515L145.387 178.813H139.184V151.303L148.113 160.377C153.47 156.27 155.914 153.118 157.135 151.685C161.459 146.527 165.594 143.853 168.695 143.853C175.274 143.853 177.718 155.601 169.729 180.914C167.474 188.173 159.767 191.708 153.47 193.427L153.752 194L171.515 190.466C181.102 159.04 177.248 141.751 169.071 141.751C166.44 141.751 163.338 143.566 160.049 147.291C157.229 150.348 152.53 154.837 148.019 154.837C143.789 154.837 139.748 151.781 141.346 147.005L171.139 113.955H176.966L178 113H162.68L161.553 113.955C165.97 114.528 165.03 117.394 163.714 119.591L139.184 147.673V121.215C139.184 121.215 139.09 114.051 145.763 114.051L144.635 113H128L129.128 113.955H135.331V173.272C134.955 175.565 133.545 178.813 128.846 178.813L129.974 179.863Z" fill="#001AFF"/>
</svg>
